# Blender 5.2.1 LTS
# www.blender.org
o defaultMaterial.001
v -0.000000 0.013122 0.103011
v -0.000000 0.013122 0.106916
v 0.002560 0.012870 0.106916
v 0.002560 0.012870 0.103011
v 0.005021 0.012123 0.106916
v 0.005021 0.012123 0.103011
v 0.007290 0.010910 0.106916
v 0.007290 0.010910 0.103011
v 0.009278 0.009278 0.106916
v 0.009278 0.009278 0.103011
v 0.010910 0.007290 0.106916
v 0.010910 0.007290 0.103011
v 0.012123 0.005021 0.106916
v 0.012123 0.005021 0.103011
v 0.012870 0.002560 0.106916
v 0.012870 0.002560 0.103011
v 0.013122 0.000000 0.106916
v 0.013122 0.000000 0.103011
v 0.012870 -0.002560 0.106916
v 0.012870 -0.002560 0.103011
v 0.012123 -0.005021 0.106916
v 0.012123 -0.005021 0.103011
v 0.010910 -0.007290 0.106916
v 0.010910 -0.007290 0.103011
v 0.009278 -0.009278 0.106916
v 0.009278 -0.009278 0.103011
v 0.007290 -0.010910 0.106916
v 0.007290 -0.010910 0.103011
v 0.005021 -0.012123 0.106916
v 0.005021 -0.012123 0.103011
v 0.002560 -0.012870 0.106916
v 0.002560 -0.012870 0.103011
v -0.000000 -0.013122 0.106916
v -0.000000 -0.013122 0.103011
v -0.002560 -0.012870 0.106916
v -0.002560 -0.012870 0.103011
v -0.005021 -0.012123 0.106916
v -0.005021 -0.012123 0.103011
v -0.007290 -0.010910 0.106916
v -0.007290 -0.010910 0.103011
v -0.009278 -0.009278 0.106916
v -0.009278 -0.009278 0.103011
v -0.009278 -0.009278 0.103011
v -0.009278 -0.009278 0.106916
v -0.010910 -0.007290 0.106916
v -0.010910 -0.007290 0.103011
v -0.012123 -0.005021 0.106916
v -0.012123 -0.005021 0.103011
v -0.012870 -0.002560 0.106916
v -0.012870 -0.002560 0.103011
v -0.013122 0.000000 0.106916
v -0.013122 0.000000 0.103011
v -0.012870 0.002560 0.106916
v -0.012870 0.002560 0.103011
v -0.012123 0.005021 0.106916
v -0.012123 0.005021 0.103011
v -0.010910 0.007290 0.106916
v -0.010910 0.007290 0.103011
v -0.009278 0.009278 0.106916
v -0.009278 0.009278 0.103011
v -0.007290 0.010910 0.106916
v -0.007290 0.010910 0.103011
v -0.005021 0.012123 0.106916
v -0.005021 0.012123 0.103011
v -0.002560 0.012870 0.106916
v -0.002560 0.012870 0.103011
v -0.012123 -0.005021 0.103011
v -0.012870 -0.002560 0.103011
v -0.012219 -0.002430 0.103093
v -0.011510 -0.004767 0.103093
v 0.005021 -0.012123 0.106916
v 0.007290 -0.010910 0.106916
v 0.006921 -0.010358 0.106834
v 0.004767 -0.011510 0.106834
v -0.002560 0.012870 0.103011
v -0.000000 0.013122 0.103011
v 0.000000 0.012458 0.103093
v -0.002430 0.012219 0.103093
v -0.012870 -0.002560 0.106916
v -0.012123 -0.005021 0.106916
v -0.011510 -0.004767 0.106834
v -0.012219 -0.002430 0.106834
v 0.010910 0.007290 0.103011
v 0.012123 0.005021 0.103011
v 0.011510 0.004767 0.103093
v 0.010358 0.006921 0.103093
v -0.000000 0.013122 0.106916
v -0.002560 0.012870 0.106916
v -0.002430 0.012219 0.106834
v 0.000000 0.012458 0.106834
v 0.005021 -0.012123 0.103011
v 0.002560 -0.012870 0.103011
v 0.002430 -0.012219 0.103093
v 0.004767 -0.011510 0.103093
v 0.012123 0.005021 0.106916
v 0.010910 0.007290 0.106916
v 0.010358 0.006921 0.106834
v 0.011510 0.004767 0.106834
v -0.013122 0.000000 0.103011
v -0.012458 0.000000 0.103093
v 0.002560 -0.012870 0.106916
v 0.002430 -0.012219 0.106834
v -0.013122 0.000000 0.106916
v -0.012458 0.000000 0.106834
v 0.012870 0.002560 0.103011
v 0.012219 0.002430 0.103093
v -0.000000 -0.013122 0.103011
v -0.000000 -0.012458 0.103093
v 0.012870 0.002560 0.106916
v 0.012219 0.002430 0.106834
v -0.012870 0.002560 0.103011
v -0.012219 0.002430 0.103093
v -0.000000 -0.013122 0.106916
v -0.000000 -0.012458 0.106834
v -0.012870 0.002560 0.106916
v -0.012219 0.002430 0.106834
v 0.013122 0.000000 0.103011
v 0.012458 0.000000 0.103093
v -0.002560 -0.012870 0.103011
v -0.002430 -0.012219 0.103093
v 0.013122 0.000000 0.106916
v 0.012458 0.000000 0.106834
v -0.012123 0.005021 0.103011
v -0.011510 0.004767 0.103093
v -0.002560 -0.012870 0.106916
v -0.002430 -0.012219 0.106834
v -0.012123 0.005021 0.106916
v -0.011510 0.004767 0.106834
v 0.012870 -0.002560 0.103011
v 0.012219 -0.002430 0.103093
v -0.005021 -0.012123 0.103011
v -0.004767 -0.011510 0.103093
v 0.012870 -0.002560 0.106916
v 0.012219 -0.002430 0.106834
v 0.002560 0.012870 0.103011
v 0.002430 0.012219 0.103093
v -0.010910 0.007290 0.103011
v -0.010358 0.006921 0.103093
v -0.005021 -0.012123 0.106916
v -0.004767 -0.011510 0.106834
v 0.002560 0.012870 0.106916
v 0.002430 0.012219 0.106834
v -0.010910 0.007290 0.106916
v -0.010358 0.006921 0.106834
v 0.012123 -0.005021 0.103011
v 0.011510 -0.004767 0.103093
v -0.007290 -0.010910 0.103011
v -0.006921 -0.010358 0.103093
v 0.012123 -0.005021 0.106916
v 0.011510 -0.004767 0.106834
v -0.009278 0.009278 0.103011
v -0.008809 0.008809 0.103093
v -0.007290 -0.010910 0.106916
v -0.006921 -0.010358 0.106834
v 0.005021 0.012123 0.103011
v 0.004767 0.011510 0.103093
v -0.009278 0.009278 0.106916
v -0.008809 0.008809 0.106834
v 0.010910 -0.007290 0.103011
v 0.010358 -0.006921 0.103093
v 0.005021 0.012123 0.106916
v 0.004767 0.011510 0.106834
v -0.009278 -0.009278 0.103011
v -0.008809 -0.008809 0.103093
v 0.010910 -0.007290 0.106916
v 0.010358 -0.006921 0.106834
v -0.007290 0.010910 0.103011
v -0.006921 0.010358 0.103093
v -0.009278 -0.009278 0.106916
v -0.008809 -0.008809 0.106834
v 0.007290 0.010910 0.103011
v 0.006921 0.010358 0.103093
v -0.007290 0.010910 0.106916
v -0.006921 0.010358 0.106834
v 0.009278 -0.009278 0.103011
v 0.008809 -0.008809 0.103093
v 0.007290 0.010910 0.106916
v 0.006921 0.010358 0.106834
v -0.009278 -0.009278 0.103011
v -0.010910 -0.007290 0.103011
v -0.010358 -0.006921 0.103093
v -0.008809 -0.008809 0.103093
v 0.009278 -0.009278 0.106916
v 0.008809 -0.008809 0.106834
v -0.005021 0.012123 0.103011
v -0.004767 0.011510 0.103093
v -0.010910 -0.007290 0.106916
v -0.009278 -0.009278 0.106916
v -0.008809 -0.008809 0.106834
v -0.010358 -0.006921 0.106834
v 0.009278 0.009278 0.103011
v 0.008809 0.008809 0.103093
v -0.005021 0.012123 0.106916
v -0.004767 0.011510 0.106834
v 0.007290 -0.010910 0.103011
v 0.006921 -0.010358 0.103093
v 0.009278 0.009278 0.106916
v 0.008809 0.008809 0.106834
v -0.000000 0.013122 0.116882
v -0.000000 0.013122 0.119397
v 0.002560 0.012870 0.119397
v 0.002560 0.012870 0.116882
v 0.005021 0.012123 0.119397
v 0.005021 0.012123 0.116882
v 0.007290 0.010910 0.119397
v 0.007290 0.010910 0.116882
v 0.009278 0.009278 0.119397
v 0.009278 0.009278 0.116882
v 0.009278 0.009278 0.116882
v 0.009278 0.009278 0.119397
v 0.010910 0.007290 0.119397
v 0.010910 0.007290 0.116882
v 0.012123 0.005021 0.119397
v 0.012123 0.005021 0.116882
v 0.012870 0.002560 0.119397
v 0.012870 0.002560 0.116882
v 0.013122 0.000000 0.119397
v 0.013122 0.000000 0.116882
v 0.012870 -0.002560 0.119397
v 0.012870 -0.002560 0.116882
v 0.012123 -0.005021 0.119397
v 0.012123 -0.005021 0.116882
v 0.010910 -0.007290 0.119397
v 0.010910 -0.007290 0.116882
v 0.009278 -0.009278 0.119397
v 0.009278 -0.009278 0.116882
v 0.007290 -0.010910 0.119397
v 0.007290 -0.010910 0.116882
v 0.005021 -0.012123 0.119397
v 0.005021 -0.012123 0.116882
v 0.002560 -0.012870 0.119397
v 0.002560 -0.012870 0.116882
v -0.000000 -0.013122 0.119397
v -0.000000 -0.013122 0.116882
v -0.002560 -0.012870 0.119397
v -0.002560 -0.012870 0.116882
v -0.005021 -0.012123 0.119397
v -0.005021 -0.012123 0.116882
v -0.007290 -0.010910 0.119397
v -0.007290 -0.010910 0.116882
v -0.009278 -0.009278 0.119397
v -0.009278 -0.009278 0.116882
v -0.009278 -0.009278 0.116882
v -0.009278 -0.009278 0.119397
v -0.010910 -0.007290 0.119397
v -0.010910 -0.007290 0.116882
v -0.012123 -0.005021 0.119397
v -0.012123 -0.005021 0.116882
v -0.012870 -0.002560 0.119397
v -0.012870 -0.002560 0.116882
v -0.013122 0.000000 0.119397
v -0.013122 0.000000 0.116882
v -0.012870 0.002560 0.119397
v -0.012870 0.002560 0.116882
v -0.012123 0.005021 0.119397
v -0.012123 0.005021 0.116882
v -0.010910 0.007290 0.119397
v -0.010910 0.007290 0.116882
v -0.009278 0.009278 0.119397
v -0.009278 0.009278 0.116882
v -0.007290 0.010910 0.119397
v -0.007290 0.010910 0.116882
v -0.005021 0.012123 0.119397
v -0.005021 0.012123 0.116882
v -0.002560 0.012870 0.119397
v -0.002560 0.012870 0.116882
v -0.012123 -0.005021 0.107473
v -0.012870 -0.002560 0.107473
v -0.012219 -0.002430 0.107554
v -0.011510 -0.004767 0.107554
v 0.005021 -0.012123 0.119397
v 0.007290 -0.010910 0.119397
v 0.006921 -0.010358 0.120000
v 0.004767 -0.011510 0.120000
v -0.002560 0.012870 0.107473
v -0.000000 0.013122 0.107473
v 0.000000 0.012458 0.107554
v -0.002430 0.012219 0.107554
v -0.012870 -0.002560 0.119397
v -0.012123 -0.005021 0.119397
v -0.011510 -0.004767 0.120000
v -0.012219 -0.002430 0.120000
v 0.010910 0.007290 0.107473
v 0.012123 0.005021 0.107473
v 0.011510 0.004767 0.107554
v 0.010358 0.006921 0.107554
v -0.000000 0.013122 0.119397
v -0.002560 0.012870 0.119397
v -0.002430 0.012219 0.120000
v 0.000000 0.012458 0.120000
v 0.005021 -0.012123 0.107473
v 0.002560 -0.012870 0.107473
v 0.002430 -0.012219 0.107554
v 0.004767 -0.011510 0.107554
v 0.012123 0.005021 0.119397
v 0.010910 0.007290 0.119397
v 0.010358 0.006921 0.120000
v 0.011510 0.004767 0.120000
v -0.013122 0.000000 0.107473
v -0.012458 0.000000 0.107554
v 0.002560 -0.012870 0.119397
v 0.002430 -0.012219 0.120000
v -0.013122 0.000000 0.119397
v -0.012458 0.000000 0.120000
v 0.012870 0.002560 0.107473
v 0.012219 0.002430 0.107554
v -0.000000 -0.013122 0.107473
v -0.000000 -0.012458 0.107554
v 0.012870 0.002560 0.119397
v 0.012219 0.002430 0.120000
v -0.012870 0.002560 0.107473
v -0.012219 0.002430 0.107554
v -0.000000 -0.013122 0.119397
v -0.000000 -0.012458 0.120000
v -0.012870 0.002560 0.119397
v -0.012219 0.002430 0.120000
v 0.013122 0.000000 0.107473
v 0.012458 0.000000 0.107554
v -0.002560 -0.012870 0.107473
v -0.002430 -0.012219 0.107554
v 0.013122 0.000000 0.119397
v 0.012458 0.000000 0.120000
v -0.012123 0.005021 0.107473
v -0.011510 0.004767 0.107554
v -0.002560 -0.012870 0.119397
v -0.002430 -0.012218 0.120000
v -0.012123 0.005021 0.119397
v -0.011510 0.004767 0.120000
v 0.012870 -0.002560 0.107473
v 0.012219 -0.002430 0.107554
v -0.005021 -0.012123 0.107473
v -0.004767 -0.011510 0.107554
v 0.012870 -0.002560 0.119397
v 0.012219 -0.002430 0.120000
v 0.002560 0.012870 0.107473
v 0.002430 0.012219 0.107554
v -0.010910 0.007290 0.107473
v -0.010358 0.006921 0.107554
v -0.005021 -0.012123 0.119397
v -0.004767 -0.011510 0.120000
v 0.002560 0.012870 0.119397
v 0.002430 0.012219 0.120000
v -0.010910 0.007290 0.119397
v -0.010358 0.006921 0.120000
v 0.012123 -0.005021 0.107473
v 0.011510 -0.004767 0.107554
v -0.007290 -0.010910 0.107473
v -0.006921 -0.010358 0.107554
v 0.012123 -0.005021 0.119397
v 0.011510 -0.004767 0.120000
v -0.009278 0.009278 0.107473
v -0.008809 0.008809 0.107554
v -0.007290 -0.010910 0.119397
v -0.006921 -0.010358 0.120000
v 0.005021 0.012123 0.107473
v 0.004767 0.011510 0.107554
v -0.009278 0.009278 0.119397
v -0.008809 0.008809 0.120000
v 0.010910 -0.007290 0.107473
v 0.010358 -0.006921 0.107554
v 0.005021 0.012123 0.119397
v 0.004767 0.011510 0.120000
v -0.009278 -0.009278 0.107473
v -0.008809 -0.008809 0.107554
v 0.010910 -0.007290 0.119397
v 0.010358 -0.006921 0.120000
v -0.007290 0.010910 0.107473
v -0.006921 0.010358 0.107554
v -0.009278 -0.009278 0.119397
v -0.008809 -0.008809 0.120000
v 0.007290 0.010910 0.107473
v 0.006921 0.010358 0.107554
v -0.007290 0.010910 0.119397
v -0.006921 0.010358 0.120000
v 0.009278 -0.009278 0.107473
v 0.008809 -0.008809 0.107554
v 0.007290 0.010910 0.119397
v 0.006921 0.010358 0.120000
v -0.009278 -0.009278 0.107473
v -0.010910 -0.007290 0.107473
v -0.010358 -0.006921 0.107554
v -0.008809 -0.008809 0.107554
v 0.009278 -0.009278 0.119397
v 0.008809 -0.008809 0.120000
v -0.005021 0.012123 0.107473
v -0.004767 0.011510 0.107554
v -0.010910 -0.007290 0.119397
v -0.010358 -0.006921 0.120000
v 0.009278 0.009278 0.107473
v 0.008809 0.008809 0.107554
v -0.005021 0.012123 0.119397
v -0.004767 0.011510 0.120000
v 0.007290 -0.010910 0.107473
v 0.006921 -0.010358 0.107554
v 0.009278 0.009278 0.119397
v 0.008809 0.008809 0.120000
v 0.009278 0.009278 0.107473
v 0.008809 0.008809 0.107554
v -0.000000 -0.012458 0.120000
v 0.002430 -0.012219 0.120000
v 0.001940 -0.009752 0.120000
v -0.000000 -0.009943 0.120000
v -0.012219 -0.002430 0.120000
v -0.011510 -0.004767 0.120000
v -0.009186 -0.003805 0.120000
v -0.009752 -0.001940 0.120000
v 0.006921 0.010358 0.120000
v 0.004767 0.011510 0.120000
v 0.003805 0.009186 0.120000
v 0.005524 0.008268 0.120000
v -0.004767 0.011510 0.120000
v -0.006921 0.010358 0.120000
v -0.005524 0.008268 0.120000
v -0.003805 0.009186 0.120000
v 0.011510 -0.004767 0.120000
v 0.012219 -0.002430 0.120000
v 0.009752 -0.001940 0.120000
v 0.009186 -0.003805 0.120000
v -0.002430 -0.012218 0.120000
v -0.001940 -0.009752 0.120000
v -0.012458 0.000000 0.120000
v -0.009943 0.000000 0.120000
v 0.008809 0.008809 0.120000
v 0.007031 0.007031 0.120000
v -0.002430 0.012219 0.120000
v -0.001940 0.009752 0.120000
v 0.010358 -0.006921 0.120000
v 0.008268 -0.005524 0.120000
v -0.004767 -0.011510 0.120000
v -0.003805 -0.009186 0.120000
v -0.012219 0.002430 0.120000
v -0.009752 0.001940 0.120000
v 0.010358 0.006921 0.120000
v 0.008268 0.005524 0.120000
v 0.000000 0.012458 0.120000
v 0.000000 0.009943 0.120000
v 0.008809 -0.008809 0.120000
v 0.007031 -0.007031 0.120000
v -0.006921 -0.010358 0.120000
v -0.005524 -0.008268 0.120000
v -0.011510 0.004767 0.120000
v -0.009186 0.003805 0.120000
v 0.011510 0.004767 0.120000
v 0.009186 0.003805 0.120000
v 0.006921 -0.010358 0.120000
v 0.005524 -0.008268 0.120000
v -0.008809 -0.008809 0.120000
v -0.007031 -0.007031 0.120000
v -0.010358 0.006921 0.120000
v -0.008268 0.005524 0.120000
v 0.012219 0.002430 0.120000
v 0.009752 0.001940 0.120000
v 0.004767 -0.011510 0.120000
v 0.003805 -0.009186 0.120000
v -0.010358 -0.006921 0.120000
v -0.008268 -0.005524 0.120000
v 0.002430 0.012219 0.120000
v 0.001940 0.009752 0.120000
v -0.008809 0.008809 0.120000
v -0.007031 0.007031 0.120000
v 0.012458 0.000000 0.120000
v 0.009943 0.000000 0.120000
v 0.007394 -0.003062 0.120000
v 0.006654 -0.004446 0.120000
v -0.008003 0.000000 0.120000
v -0.007849 0.001561 0.120000
v 0.005659 -0.005659 0.120000
v -0.007394 0.003063 0.120000
v 0.004446 -0.006654 0.120000
v -0.006654 0.004446 0.120000
v 0.003063 -0.007394 0.120000
v 0.000000 0.008003 0.120000
v 0.001561 0.007849 0.120000
v -0.005659 0.005659 0.120000
v 0.001561 -0.007849 0.120000
v 0.003063 0.007394 0.120000
v -0.004446 0.006654 0.120000
v -0.000000 -0.008003 0.120000
v 0.004446 0.006654 0.120000
v -0.003062 0.007394 0.120000
v -0.001561 -0.007849 0.120000
v 0.005659 0.005659 0.120000
v -0.001561 0.007849 0.120000
v -0.003063 -0.007394 0.120000
v 0.006654 0.004446 0.120000
v -0.004446 -0.006654 0.120000
v 0.007394 0.003063 0.120000
v -0.005659 -0.005659 0.120000
v 0.007849 0.001561 0.120000
v -0.006654 -0.004446 0.120000
v 0.008003 0.000000 0.120000
v -0.007394 -0.003062 0.120000
v 0.007849 -0.001561 0.120000
v -0.007849 -0.001561 0.120000
v 0.003319 -0.004967 0.120000
v 0.002286 -0.005519 0.120000
v 0.000000 0.005974 0.120000
v 0.001165 0.005859 0.120000
v -0.004967 0.003319 0.120000
v -0.004224 0.004224 0.120000
v 0.001165 -0.005859 0.120000
v 0.002286 0.005519 0.120000
v -0.003319 0.004967 0.120000
v -0.000000 -0.005974 0.120000
v 0.003319 0.004967 0.120000
v -0.002286 0.005519 0.120000
v -0.001165 -0.005859 0.120000
v 0.004224 0.004224 0.120000
v -0.001165 0.005859 0.120000
v -0.002286 -0.005519 0.120000
v 0.004967 0.003319 0.120000
v -0.003319 -0.004967 0.120000
v 0.005519 0.002286 0.120000
v -0.004224 -0.004224 0.120000
v 0.005859 0.001165 0.120000
v -0.004967 -0.003319 0.120000
v 0.005974 0.000000 0.120000
v -0.005519 -0.002286 0.120000
v 0.005859 -0.001165 0.120000
v -0.005859 -0.001165 0.120000
v 0.005519 -0.002286 0.120000
v -0.005974 0.000000 0.120000
v 0.004967 -0.003319 0.120000
v -0.005859 0.001165 0.120000
v 0.004224 -0.004224 0.120000
v -0.005519 0.002286 0.120000
v -0.000000 -0.004003 0.120000
v -0.000781 -0.003926 0.120000
v 0.002224 0.003329 0.120000
v 0.002831 0.002831 0.120000
v -0.001532 0.003698 0.120000
v -0.000781 0.003926 0.120000
v -0.001532 -0.003698 0.120000
v 0.003329 0.002224 0.120000
v 0.000000 0.004003 0.120000
v -0.002224 -0.003329 0.120000
v 0.003698 0.001532 0.120000
v -0.002831 -0.002831 0.120000
v 0.003926 0.000781 0.120000
v -0.003329 -0.002224 0.120000
v 0.004003 0.000000 0.120000
v -0.003698 -0.001532 0.120000
v 0.003926 -0.000781 0.120000
v -0.003926 -0.000781 0.120000
v 0.003698 -0.001532 0.120000
v -0.004003 0.000000 0.120000
v 0.003329 -0.002224 0.120000
v -0.003926 0.000781 0.120000
v 0.002831 -0.002831 0.120000
v -0.003698 0.001532 0.120000
v 0.002224 -0.003329 0.120000
v -0.003329 0.002224 0.120000
v 0.001532 -0.003698 0.120000
v 0.000781 0.003926 0.120000
v -0.002831 0.002831 0.120000
v 0.000781 -0.003926 0.120000
v 0.001532 0.003698 0.120000
v -0.002224 0.003329 0.120000
v 0.000000 0.000000 0.120000
v -0.002560 0.012870 0.111851
v -0.002560 0.012870 0.114367
v -0.000000 0.013122 0.114367
v -0.000000 0.013122 0.111851
v -0.005021 0.012123 0.111851
v -0.005021 0.012123 0.114367
v -0.007290 0.010910 0.111851
v -0.007290 0.010910 0.114367
v -0.009278 0.009278 0.111851
v -0.009278 0.009278 0.114367
v -0.010910 0.007290 0.111851
v -0.010910 0.007290 0.114367
v -0.012123 0.005021 0.111851
v -0.012123 0.005021 0.114367
v -0.012870 0.002560 0.111851
v -0.012870 0.002560 0.114367
v -0.013122 0.000000 0.111851
v -0.013122 0.000000 0.114367
v -0.012870 -0.002560 0.111851
v -0.012870 -0.002560 0.114367
v -0.012123 -0.005021 0.111851
v -0.012123 -0.005021 0.114367
v -0.010910 -0.007290 0.111851
v -0.010910 -0.007290 0.114367
v -0.009278 -0.009278 0.111851
v -0.009278 -0.009278 0.114367
v -0.007290 -0.010910 0.111851
v -0.007290 -0.010910 0.114367
v -0.009278 -0.009278 0.114367
v -0.009278 -0.009278 0.111851
v -0.005021 -0.012123 0.111851
v -0.005021 -0.012123 0.114367
v -0.002560 -0.012870 0.111851
v -0.002560 -0.012870 0.114367
v -0.000000 -0.013122 0.111851
v -0.000000 -0.013122 0.114367
v 0.002560 -0.012870 0.111851
v 0.002560 -0.012870 0.114367
v 0.005021 -0.012123 0.111851
v 0.005021 -0.012123 0.114367
v 0.007290 -0.010910 0.111851
v 0.007290 -0.010910 0.114367
v 0.009278 -0.009278 0.111851
v 0.009278 -0.009278 0.114367
v 0.010910 -0.007290 0.111851
v 0.010910 -0.007290 0.114367
v 0.012123 -0.005021 0.111851
v 0.012123 -0.005021 0.114367
v 0.012870 -0.002560 0.111851
v 0.012870 -0.002560 0.114367
v 0.013122 0.000000 0.111851
v 0.013122 0.000000 0.114367
v 0.012870 0.002560 0.111851
v 0.012870 0.002560 0.114367
v 0.012123 0.005021 0.111851
v 0.012123 0.005021 0.114367
v 0.010910 0.007290 0.111851
v 0.010910 0.007290 0.114367
v 0.009278 0.009278 0.111851
v 0.009278 0.009278 0.114367
v 0.007290 0.010910 0.111851
v 0.007290 0.010910 0.114367
v 0.009278 0.009278 0.114367
v 0.009278 0.009278 0.111851
v 0.005021 0.012123 0.111851
v 0.005021 0.012123 0.114367
v 0.002560 0.012870 0.111851
v 0.002560 0.012870 0.114367
v -0.000000 0.013122 0.109662
v 0.002560 0.012870 0.109662
v 0.005021 0.012123 0.109662
v 0.007290 0.010910 0.109662
v 0.009278 0.009278 0.109662
v 0.009278 0.009278 0.109662
v 0.010910 0.007290 0.109662
v 0.012123 0.005021 0.109662
v 0.012870 0.002560 0.109662
v 0.013122 0.000000 0.109662
v 0.012870 -0.002560 0.109662
v 0.012123 -0.005021 0.109662
v 0.010910 -0.007290 0.109662
v 0.009278 -0.009278 0.109662
v 0.007290 -0.010910 0.109662
v 0.005021 -0.012123 0.109662
v 0.002560 -0.012870 0.109662
v -0.000000 -0.013122 0.109662
v -0.002560 -0.012870 0.109662
v -0.005021 -0.012123 0.109662
v -0.007290 -0.010910 0.109662
v -0.009278 -0.009278 0.109662
v -0.009278 -0.009278 0.109662
v -0.010910 -0.007290 0.109662
v -0.012123 -0.005021 0.109662
v -0.012870 -0.002560 0.109662
v -0.013122 0.000000 0.109662
v -0.012870 0.002560 0.109662
v -0.012123 0.005021 0.109662
v -0.010910 0.007290 0.109662
v -0.009278 0.009278 0.109662
v -0.007290 0.010910 0.109662
v -0.005021 0.012123 0.109662
v -0.002560 0.012870 0.109662
v -0.002560 0.012870 0.107473
v -0.000000 0.013122 0.107473
v -0.005021 0.012123 0.107473
v -0.007290 0.010910 0.107473
v -0.009278 0.009278 0.107473
v -0.010910 0.007290 0.107473
v -0.012123 0.005021 0.107473
v -0.012870 0.002560 0.107473
v -0.013122 0.000000 0.107473
v -0.012870 -0.002560 0.107473
v -0.012123 -0.005021 0.107473
v -0.010910 -0.007290 0.107473
v -0.009278 -0.009278 0.107473
v -0.007290 -0.010910 0.107473
v -0.009278 -0.009278 0.107473
v -0.005021 -0.012123 0.107473
v -0.002560 -0.012870 0.107473
v -0.000000 -0.013122 0.107473
v 0.002560 -0.012870 0.107473
v 0.005021 -0.012123 0.107473
v 0.007290 -0.010910 0.107473
v 0.009278 -0.009278 0.107473
v 0.010910 -0.007290 0.107473
v 0.012123 -0.005021 0.107473
v 0.012870 -0.002560 0.107473
v 0.013122 0.000000 0.107473
v 0.012870 0.002560 0.107473
v 0.012123 0.005021 0.107473
v 0.010910 0.007290 0.107473
v 0.009278 0.009278 0.107473
v 0.007290 0.010910 0.107473
v 0.009278 0.009278 0.107473
v 0.005021 0.012123 0.107473
v 0.002560 0.012870 0.107473
vn 0.1951 0.9808 -0.0000
vn -0.0000 1.0000 -0.0000
vn 0.3827 0.9239 -0.0000
vn 0.5556 0.8315 -0.0000
vn 0.7071 0.7071 -0.0000
vn 0.8315 0.5556 -0.0000
vn 0.9239 0.3827 -0.0000
vn 0.9808 0.1951 -0.0000
vn 1.0000 -0.0000 -0.0000
vn 0.9808 -0.1951 -0.0000
vn 0.9239 -0.3827 -0.0000
vn 0.8315 -0.5556 -0.0000
vn 0.7071 -0.7071 -0.0000
vn 0.5556 -0.8315 -0.0000
vn 0.3827 -0.9239 -0.0000
vn 0.1951 -0.9808 -0.0000
vn -0.0000 -1.0000 -0.0000
vn -0.1951 -0.9808 -0.0000
vn -0.3827 -0.9239 -0.0000
vn -0.5556 -0.8315 -0.0000
vn -0.7071 -0.7071 -0.0000
vn -0.8315 -0.5556 -0.0000
vn -0.9239 -0.3827 -0.0000
vn -0.9808 -0.1951 -0.0000
vn -1.0000 -0.0000 -0.0000
vn -0.9808 0.1951 -0.0000
vn -0.9239 0.3827 -0.0000
vn -0.8315 0.5556 -0.0000
vn -0.7071 0.7071 -0.0000
vn -0.5556 0.8315 -0.0000
vn -0.3827 0.9239 -0.0000
vn -0.1951 0.9808 -0.0000
vn 0.1132 0.0469 -0.9925
vn 0.1202 0.0239 -0.9925
vn -0.0470 0.1134 0.9924
vn -0.0682 0.1020 0.9924
vn -0.0680 0.1017 0.9925
vn 0.0239 -0.1202 -0.9925
vn -0.0000 -0.1225 -0.9925
vn 0.1204 0.0239 0.9924
vn 0.1134 0.0470 0.9924
vn -0.1019 -0.0681 -0.9925
vn -0.1132 -0.0469 -0.9925
vn -0.0000 -0.1227 0.9924
vn 0.0239 -0.1204 0.9924
vn -0.0469 0.1132 -0.9925
vn -0.0239 0.1202 -0.9925
vn -0.1134 -0.0470 0.9924
vn -0.1020 -0.0682 0.9924
vn -0.1018 -0.0680 0.9925
vn 0.1225 -0.0000 -0.9925
vn -0.0239 0.1204 0.9924
vn 0.1223 -0.0000 0.9925
vn 0.1227 -0.0000 0.9924
vn -0.1202 -0.0239 -0.9925
vn -0.0000 0.1225 -0.9925
vn -0.1200 -0.0239 0.9925
vn -0.1204 -0.0239 0.9924
vn 0.1202 -0.0239 -0.9925
vn -0.0000 0.1227 0.9924
vn 0.1203 -0.0239 0.9924
vn -0.1225 -0.0000 -0.9925
vn 0.0239 0.1202 -0.9925
vn -0.1227 -0.0000 0.9924
vn -0.1224 -0.0000 0.9925
vn 0.1132 -0.0469 -0.9925
vn 0.0239 0.1204 0.9924
vn 0.1134 -0.0470 0.9924
vn -0.1202 0.0239 -0.9925
vn 0.0469 0.1132 -0.9925
vn -0.1204 0.0239 0.9924
vn -0.0239 -0.1202 -0.9925
vn 0.1019 -0.0681 -0.9925
vn 0.0470 0.1134 0.9924
vn -0.0239 -0.1204 0.9924
vn 0.1017 -0.0680 0.9925
vn 0.1016 -0.0679 0.9925
vn -0.1132 0.0469 -0.9925
vn 0.0681 0.1019 -0.9925
vn -0.1134 0.0470 0.9924
vn 0.0866 -0.0866 -0.9925
vn 0.0682 0.1020 0.9924
vn 0.0680 0.1017 0.9925
vn -0.0469 -0.1132 -0.9925
vn 0.0865 -0.0865 0.9925
vn 0.0868 -0.0868 0.9924
vn -0.1019 0.0681 -0.9925
vn -0.0470 -0.1134 0.9924
vn 0.0867 0.0866 -0.9925
vn -0.1017 0.0680 0.9925
vn -0.1018 0.0680 0.9925
vn 0.0681 -0.1019 -0.9925
vn 0.0866 0.0866 0.9925
vn -0.0681 -0.1019 -0.9925
vn 0.0682 -0.1020 0.9924
vn 0.0680 -0.1017 0.9925
vn -0.0866 0.0866 -0.9925
vn -0.0679 -0.1016 0.9925
vn -0.0680 -0.1018 0.9925
vn 0.0866 0.0867 -0.9925
vn 0.0866 0.0866 -0.9925
vn 0.1019 0.0681 -0.9925
vn -0.0868 0.0868 0.9924
vn 0.0469 -0.1132 -0.9925
vn 0.1020 0.0682 0.9924
vn -0.0866 -0.0866 -0.9925
vn 0.0470 -0.1134 0.9924
vn -0.0681 0.1019 -0.9925
vn -0.0868 -0.0868 0.9924
vn 0.2573 -0.6212 0.7402
vn 0.3736 -0.5591 0.7402
vn -0.6595 -0.1312 0.7402
vn -0.6212 -0.2573 0.7402
vn -0.0000 0.6724 0.7402
vn -0.1312 0.6595 0.7402
vn 0.6212 0.2573 0.7402
vn 0.5591 0.3736 0.7402
vn 0.1312 -0.6595 0.7402
vn -0.6724 -0.0000 0.7402
vn 0.6595 0.1312 0.7402
vn -0.0000 -0.6724 0.7402
vn -0.6595 0.1312 0.7402
vn 0.6724 -0.0000 0.7402
vn -0.1312 -0.6594 0.7402
vn -0.6212 0.2573 0.7402
vn 0.6595 -0.1312 0.7402
vn -0.2573 -0.6212 0.7402
vn 0.1312 0.6595 0.7402
vn -0.5591 0.3736 0.7402
vn 0.6212 -0.2573 0.7402
vn 0.0866 -0.0867 -0.9925
vn 0.0867 -0.0867 -0.9925
vn -0.3736 -0.5591 0.7402
vn -0.4754 0.4754 0.7402
vn -0.4755 0.4754 0.7402
vn 0.2573 0.6212 0.7402
vn 0.5591 -0.3736 0.7402
vn -0.4755 -0.4754 0.7402
vn -0.4755 -0.4755 0.7402
vn -0.3736 0.5591 0.7402
vn -0.0866 0.0867 -0.9925
vn -0.0867 0.0867 -0.9925
vn 0.3736 0.5591 0.7402
vn 0.4754 -0.4754 0.7402
vn 0.4755 -0.4754 0.7402
vn -0.5591 -0.3736 0.7402
vn -0.0867 -0.0866 -0.9925
vn -0.2573 0.6212 0.7402
vn 0.4754 0.4755 0.7402
vn 0.4755 0.4755 0.7402
vn -0.0866 -0.0867 -0.9925
vn -0.0000 -0.0000 1.0000
vt 0.436823 0.496305
vt 0.436820 0.506145
vt 0.451599 0.505933
vt 0.451603 0.496093
vt 0.436827 0.486466
vt 0.451607 0.486254
vt 0.436831 0.476627
vt 0.451611 0.476414
vt 0.436835 0.466787
vt 0.451615 0.466575
vt 0.436839 0.456948
vt 0.451619 0.456736
vt 0.436843 0.447109
vt 0.451623 0.446896
vt 0.436847 0.437269
vt 0.451626 0.437057
vt 0.436851 0.427430
vt 0.451630 0.427218
vt 0.436855 0.417591
vt 0.451634 0.417379
vt 0.436859 0.407752
vt 0.451638 0.407539
vt 0.436863 0.397913
vt 0.451642 0.397700
vt 0.436867 0.388074
vt 0.451646 0.387861
vt 0.436871 0.378234
vt 0.451650 0.378022
vt 0.436875 0.368395
vt 0.451654 0.368183
vt 0.436878 0.358556
vt 0.451657 0.358343
vt 0.436881 0.348716
vt 0.451662 0.348503
vt 0.436880 0.338872
vt 0.451668 0.338656
vt 0.436859 0.329010
vt 0.451690 0.328785
vt 0.436728 0.319078
vt 0.451791 0.318817
vt 0.436107 0.308689
vt 0.452291 0.308526
vt 0.436658 0.614549
vt 0.436158 0.624841
vt 0.452343 0.624679
vt 0.451722 0.614289
vt 0.436759 0.604581
vt 0.451591 0.604357
vt 0.436781 0.594710
vt 0.451569 0.594494
vt 0.436788 0.584863
vt 0.451568 0.584650
vt 0.436792 0.575021
vt 0.451571 0.574809
vt 0.436796 0.565182
vt 0.451575 0.564969
vt 0.436800 0.555342
vt 0.451579 0.555130
vt 0.436804 0.545503
vt 0.451583 0.545290
vt 0.436808 0.535663
vt 0.451587 0.535451
vt 0.436812 0.525824
vt 0.451591 0.525611
vt 0.436816 0.515984
vt 0.451595 0.515772
vt 0.434094 0.604563
vt 0.434125 0.594707
vt 0.454305 0.368181
vt 0.454302 0.378020
vt 0.434164 0.515986
vt 0.434168 0.506147
vt 0.454223 0.594488
vt 0.454249 0.604334
vt 0.434187 0.456950
vt 0.434191 0.447110
vt 0.454251 0.505931
vt 0.454247 0.515770
vt 0.434223 0.368397
vt 0.434226 0.358558
vt 0.454274 0.446895
vt 0.454271 0.456734
vt 0.434135 0.584864
vt 0.454310 0.358342
vt 0.454221 0.584647
vt 0.434195 0.437271
vt 0.434229 0.348718
vt 0.454278 0.437055
vt 0.434140 0.575023
vt 0.454314 0.348502
vt 0.454224 0.574807
vt 0.434199 0.427432
vt 0.434227 0.338878
vt 0.454282 0.427216
vt 0.434144 0.565183
vt 0.454324 0.338659
vt 0.454227 0.564968
vt 0.434203 0.417593
vt 0.434201 0.329032
vt 0.454286 0.417377
vt 0.434172 0.496307
vt 0.434148 0.555344
vt 0.454355 0.328804
vt 0.454255 0.496092
vt 0.454231 0.555128
vt 0.434207 0.407754
vt 0.434064 0.319177
vt 0.454290 0.407538
vt 0.434152 0.545504
vt 0.454485 0.318909
vt 0.434176 0.486468
vt 0.454235 0.545289
vt 0.434211 0.397914
vt 0.454259 0.486252
vt 0.433389 0.309140
vt 0.454294 0.397699
vt 0.434156 0.535665
vt 0.455061 0.308937
vt 0.434180 0.476628
vt 0.454239 0.535449
vt 0.434215 0.388075
vt 0.454263 0.476413
vt 0.433388 0.624430
vt 0.433964 0.614458
vt 0.454298 0.387859
vt 0.434160 0.525825
vt 0.454386 0.614189
vt 0.455061 0.624227
vt 0.434183 0.466789
vt 0.454243 0.525610
vt 0.434219 0.378236
vt 0.454267 0.466573
vt 0.217598 0.495828
vt 0.217598 0.505751
vt 0.227301 0.505751
vt 0.227301 0.495828
vt 0.217598 0.485905
vt 0.227301 0.485905
vt 0.217598 0.475982
vt 0.227301 0.475982
vt 0.217598 0.466059
vt 0.227301 0.466059
vt 0.238128 0.166290
vt 0.228205 0.166290
vt 0.228205 0.175993
vt 0.238128 0.175993
vt 0.248051 0.166290
vt 0.248051 0.175993
vt 0.257974 0.166290
vt 0.257974 0.175993
vt 0.267897 0.166290
vt 0.267897 0.175993
vt 0.277820 0.166290
vt 0.277820 0.175993
vt 0.287742 0.166290
vt 0.287742 0.175993
vt 0.297665 0.166290
vt 0.297665 0.175993
vt 0.307588 0.166290
vt 0.307588 0.175993
vt 0.317511 0.166290
vt 0.317511 0.175993
vt 0.327434 0.166290
vt 0.327434 0.175993
vt 0.337357 0.166290
vt 0.337357 0.175993
vt 0.347280 0.166290
vt 0.347280 0.175993
vt 0.357203 0.166290
vt 0.357203 0.175993
vt 0.367126 0.166290
vt 0.367126 0.175993
vt 0.377049 0.166290
vt 0.377049 0.175993
vt 0.386971 0.166290
vt 0.386971 0.175993
vt 0.217598 0.614902
vt 0.217598 0.624825
vt 0.227301 0.624825
vt 0.227301 0.614902
vt 0.217598 0.604980
vt 0.227301 0.604980
vt 0.217598 0.595057
vt 0.227301 0.595057
vt 0.217598 0.585134
vt 0.227301 0.585134
vt 0.217598 0.575211
vt 0.227301 0.575211
vt 0.217598 0.565288
vt 0.227301 0.565288
vt 0.217598 0.555365
vt 0.227301 0.555365
vt 0.217598 0.545442
vt 0.227301 0.545442
vt 0.217598 0.535519
vt 0.227301 0.535519
vt 0.217598 0.525596
vt 0.227301 0.525596
vt 0.217598 0.515673
vt 0.227301 0.515673
vt 0.208948 0.369586
vt 0.207939 0.367211
vt 0.199226 0.371960
vt 0.200676 0.374095
vt 0.660827 0.195682
vt 0.663518 0.193479
vt 0.656420 0.186401
vt 0.654210 0.189087
vt 0.187495 0.440878
vt 0.185343 0.442302
vt 0.191598 0.450005
vt 0.193433 0.448191
vt 0.646506 0.267677
vt 0.648114 0.270744
vt 0.656441 0.265238
vt 0.654262 0.262545
vt 0.445696 0.209231
vt 0.445166 0.206706
vt 0.435699 0.209678
vt 0.436708 0.212053
vt 0.578457 0.239747
vt 0.575141 0.240757
vt 0.579008 0.249968
vt 0.582059 0.248327
vt 0.410845 0.275020
vt 0.408458 0.276000
vt 0.413103 0.284769
vt 0.415255 0.283345
vt 0.593703 0.189161
vt 0.591503 0.186469
vt 0.584425 0.193561
vt 0.587107 0.195770
vt 0.191598 0.378306
vt 0.193433 0.380120
vt 0.666028 0.203438
vt 0.669096 0.201804
vt 0.637896 0.271185
vt 0.638870 0.274507
vt 0.426986 0.214427
vt 0.428436 0.216562
vt 0.419358 0.292472
vt 0.421193 0.290658
vt 0.601466 0.183963
vt 0.599832 0.180892
vt 0.185343 0.386009
vt 0.187495 0.387433
vt 0.669611 0.212056
vt 0.672937 0.211054
vt 0.628768 0.272934
vt 0.629071 0.276378
vt 0.419358 0.220773
vt 0.421193 0.222587
vt 0.426986 0.298818
vt 0.428436 0.296683
vt 0.610097 0.180378
vt 0.609093 0.177047
vt 0.180698 0.394778
vt 0.183085 0.395758
vt 0.671440 0.221203
vt 0.674896 0.220871
vt 0.619456 0.272854
vt 0.619114 0.276303
vt 0.413103 0.228476
vt 0.415255 0.229900
vt 0.435699 0.303567
vt 0.436708 0.301192
vt 0.619264 0.178545
vt 0.618929 0.175081
vt 0.199226 0.456351
vt 0.200676 0.454217
vt 0.177839 0.404280
vt 0.180370 0.404779
vt 0.671444 0.230525
vt 0.674896 0.230876
vt 0.576606 0.230622
vt 0.573155 0.230963
vt 0.610295 0.271138
vt 0.609314 0.274457
vt 0.408458 0.237245
vt 0.410845 0.238225
vt 0.445166 0.306539
vt 0.445696 0.304014
vt 0.628614 0.178533
vt 0.628961 0.175070
vt 0.176873 0.414156
vt 0.179453 0.414156
vt 0.669623 0.239662
vt 0.672938 0.240682
vt 0.207939 0.461100
vt 0.208947 0.458725
vt 0.601670 0.267663
vt 0.600056 0.270726
vt 0.405599 0.246747
vt 0.408130 0.247246
vt 0.576579 0.221306
vt 0.573126 0.220965
vt 0.455030 0.307622
vt 0.455061 0.305042
vt 0.637787 0.180344
vt 0.638802 0.177015
vt 0.177838 0.424031
vt 0.180370 0.423532
vt 0.666050 0.248261
vt 0.669099 0.249910
vt 0.217406 0.464072
vt 0.217936 0.461547
vt 0.593895 0.262561
vt 0.591711 0.265249
vt 0.404633 0.256622
vt 0.407214 0.256622
vt 0.578377 0.212159
vt 0.575056 0.211149
vt 0.227301 0.365737
vt 0.227270 0.363157
vt 0.217406 0.364239
vt 0.217936 0.366764
vt 0.646430 0.183908
vt 0.648074 0.180841
vt 0.180698 0.433533
vt 0.183084 0.432553
vt 0.660862 0.255988
vt 0.663528 0.258202
vt 0.227270 0.465155
vt 0.227301 0.462575
vt 0.587273 0.256032
vt 0.584603 0.258239
vt 0.405599 0.266498
vt 0.408130 0.265999
vt 0.581932 0.203537
vt 0.578871 0.201895
vt 0.455061 0.208204
vt 0.455030 0.205624
vt 0.052038 0.182818
vt 0.052988 0.173165
vt 0.043567 0.173165
vt 0.044518 0.182818
vt 0.086451 0.217231
vt 0.096104 0.216280
vt 0.094266 0.207040
vt 0.084984 0.209856
vt 0.023945 0.250642
vt 0.017791 0.258140
vt 0.025625 0.263374
vt 0.030197 0.254819
vt 0.059413 0.257697
vt 0.062229 0.266979
vt 0.070933 0.263374
vt 0.066360 0.254819
vt 0.014450 0.202910
vt 0.005895 0.198337
vt 0.002290 0.207041
vt 0.011573 0.209857
vt 0.059413 0.184285
vt 0.062228 0.175003
vt 0.086451 0.224750
vt 0.096104 0.225701
vt 0.018628 0.245325
vt 0.011130 0.251478
vt 0.052038 0.259163
vt 0.052989 0.268817
vt 0.018628 0.196657
vt 0.011129 0.190504
vt 0.066359 0.187163
vt 0.070932 0.178608
vt 0.084984 0.232125
vt 0.094267 0.234941
vt 0.014450 0.239073
vt 0.005896 0.243645
vt 0.044519 0.259163
vt 0.043568 0.268817
vt 0.023945 0.191340
vt 0.017791 0.183842
vt 0.072612 0.191340
vt 0.078765 0.183842
vt 0.082107 0.239072
vt 0.090661 0.243645
vt 0.011573 0.232126
vt 0.002290 0.234942
vt 0.030197 0.187163
vt 0.025624 0.178608
vt 0.077929 0.196657
vt 0.085427 0.190503
vt 0.077929 0.245324
vt 0.085428 0.251478
vt 0.010106 0.224751
vt 0.000452 0.225702
vt 0.037143 0.184285
vt 0.034328 0.175003
vt 0.082106 0.202909
vt 0.090661 0.198336
vt 0.037144 0.257697
vt 0.034328 0.266979
vt 0.072612 0.250641
vt 0.078766 0.258140
vt 0.010106 0.217231
vt 0.000452 0.216281
vt 0.024414 0.201407
vt 0.021052 0.206438
vt 0.077820 0.229952
vt 0.079001 0.224017
vt 0.028694 0.197127
vt 0.075504 0.235543
vt 0.033726 0.193765
vt 0.072142 0.240575
vt 0.039317 0.191449
vt 0.039317 0.250533
vt 0.045253 0.251713
vt 0.067863 0.244855
vt 0.045252 0.190268
vt 0.033726 0.248217
vt 0.062831 0.248217
vt 0.051304 0.190268
vt 0.028694 0.244855
vt 0.057240 0.250533
vt 0.057240 0.191449
vt 0.024415 0.240576
vt 0.051304 0.251713
vt 0.062831 0.193765
vt 0.021052 0.235544
vt 0.067863 0.197127
vt 0.018736 0.229953
vt 0.072142 0.201406
vt 0.017556 0.224017
vt 0.075504 0.206438
vt 0.017556 0.217965
vt 0.077820 0.212029
vt 0.018736 0.212030
vt 0.079001 0.217965
vt 0.041588 0.198938
vt 0.037415 0.200667
vt 0.041589 0.243044
vt 0.046020 0.243925
vt 0.062898 0.238805
vt 0.066093 0.235610
vt 0.046019 0.198056
vt 0.037415 0.241315
vt 0.059142 0.241315
vt 0.050537 0.198057
vt 0.033659 0.238805
vt 0.054968 0.243044
vt 0.054968 0.198938
vt 0.030464 0.235611
vt 0.050537 0.243925
vt 0.059142 0.200667
vt 0.027954 0.231854
vt 0.062898 0.203177
vt 0.026225 0.227681
vt 0.066092 0.206371
vt 0.025344 0.223250
vt 0.068602 0.210127
vt 0.025344 0.218732
vt 0.070331 0.214301
vt 0.026225 0.214301
vt 0.071213 0.218732
vt 0.027954 0.210128
vt 0.071213 0.223249
vt 0.030464 0.206371
vt 0.070331 0.227680
vt 0.033658 0.203177
vt 0.068603 0.231854
vt 0.052761 0.206213
vt 0.049792 0.205622
vt 0.036341 0.230788
vt 0.038482 0.232928
vt 0.049792 0.236359
vt 0.052761 0.235769
vt 0.055558 0.207372
vt 0.034659 0.228271
vt 0.046765 0.236359
vt 0.058075 0.209053
vt 0.033501 0.225474
vt 0.060216 0.211194
vt 0.032910 0.222505
vt 0.061897 0.213711
vt 0.032910 0.219477
vt 0.063056 0.216508
vt 0.033501 0.216508
vt 0.063647 0.219477
vt 0.034659 0.213711
vt 0.063647 0.222504
vt 0.036341 0.211194
vt 0.063056 0.225474
vt 0.038481 0.209054
vt 0.061898 0.228270
vt 0.040999 0.207372
vt 0.060216 0.230788
vt 0.043795 0.206213
vt 0.043796 0.235769
vt 0.058075 0.232928
vt 0.046765 0.205623
vt 0.040999 0.234610
vt 0.055558 0.234610
vt 0.048278 0.220991
vt 0.198192 0.505751
vt 0.198192 0.515673
vt 0.207895 0.515673
vt 0.207895 0.505751
vt 0.198192 0.525596
vt 0.207895 0.525596
vt 0.198192 0.535519
vt 0.207895 0.535519
vt 0.198192 0.545442
vt 0.207895 0.545442
vt 0.198192 0.555365
vt 0.207895 0.555365
vt 0.198192 0.565288
vt 0.207895 0.565288
vt 0.198192 0.575211
vt 0.207895 0.575211
vt 0.198192 0.585134
vt 0.207895 0.585134
vt 0.198192 0.595057
vt 0.207895 0.595057
vt 0.198192 0.604980
vt 0.207895 0.604980
vt 0.198192 0.614902
vt 0.207895 0.614902
vt 0.198192 0.624825
vt 0.207895 0.624825
vt 0.386971 0.146884
vt 0.377049 0.146885
vt 0.377049 0.156587
vt 0.386971 0.156587
vt 0.367126 0.146885
vt 0.367126 0.156587
vt 0.357203 0.146885
vt 0.357203 0.156587
vt 0.347280 0.146885
vt 0.347280 0.156587
vt 0.337357 0.146885
vt 0.337357 0.156587
vt 0.327434 0.146885
vt 0.327434 0.156587
vt 0.317511 0.146885
vt 0.317511 0.156587
vt 0.307588 0.146885
vt 0.307588 0.156587
vt 0.297665 0.146885
vt 0.297665 0.156587
vt 0.287742 0.146885
vt 0.287742 0.156587
vt 0.277820 0.146885
vt 0.277820 0.156587
vt 0.267897 0.146885
vt 0.267897 0.156587
vt 0.257974 0.146885
vt 0.257974 0.156587
vt 0.248051 0.146885
vt 0.248051 0.156587
vt 0.238128 0.146885
vt 0.238128 0.156587
vt 0.228205 0.146884
vt 0.228205 0.156587
vt 0.198192 0.466059
vt 0.198192 0.475982
vt 0.207895 0.475982
vt 0.207895 0.466059
vt 0.198192 0.485905
vt 0.207895 0.485905
vt 0.198192 0.495828
vt 0.207895 0.495828
vt 0.189747 0.495828
vt 0.189747 0.505751
vt 0.189747 0.485905
vt 0.189747 0.475982
vt 0.189747 0.466059
vt 0.238128 0.138439
vt 0.228205 0.138439
vt 0.248051 0.138439
vt 0.257974 0.138439
vt 0.267897 0.138439
vt 0.277820 0.138439
vt 0.287742 0.138439
vt 0.297665 0.138439
vt 0.307588 0.138439
vt 0.317511 0.138439
vt 0.327434 0.138439
vt 0.337357 0.138439
vt 0.347280 0.138439
vt 0.357203 0.138439
vt 0.367126 0.138439
vt 0.377049 0.138439
vt 0.386971 0.138439
vt 0.189747 0.614902
vt 0.189746 0.624825
vt 0.189747 0.604980
vt 0.189747 0.595057
vt 0.189747 0.585134
vt 0.189747 0.575211
vt 0.189747 0.565288
vt 0.189747 0.555365
vt 0.189747 0.545442
vt 0.189747 0.535519
vt 0.189747 0.525596
vt 0.189747 0.515673
vt 0.181301 0.505751
vt 0.181301 0.515673
vt 0.181301 0.525596
vt 0.181301 0.535519
vt 0.181301 0.545442
vt 0.181301 0.555365
vt 0.181301 0.565288
vt 0.181301 0.575211
vt 0.181301 0.585134
vt 0.181301 0.595057
vt 0.181301 0.604980
vt 0.181301 0.614902
vt 0.181301 0.624825
vt 0.386971 0.129993
vt 0.377049 0.129993
vt 0.367126 0.129993
vt 0.357203 0.129993
vt 0.347280 0.129993
vt 0.337357 0.129993
vt 0.327434 0.129993
vt 0.317511 0.129993
vt 0.307588 0.129993
vt 0.297665 0.129993
vt 0.287742 0.129993
vt 0.277820 0.129993
vt 0.267897 0.129993
vt 0.257974 0.129993
vt 0.248051 0.129993
vt 0.238128 0.129993
vt 0.228205 0.129993
vt 0.181301 0.466059
vt 0.181301 0.475982
vt 0.181301 0.485905
vt 0.181301 0.495828
s 1
f 4/1/1 1/2/2 2/3/2
f 2/3/2 3/4/1 4/1/1
f 6/5/3 4/1/1 3/4/1
f 3/4/1 5/6/3 6/5/3
f 8/7/4 6/5/3 5/6/3
f 5/6/3 7/8/4 8/7/4
f 10/9/5 8/7/4 7/8/4
f 7/8/4 9/10/5 10/9/5
f 12/11/6 10/9/5 9/10/5
f 9/10/5 11/12/6 12/11/6
f 14/13/7 12/11/6 11/12/6
f 11/12/6 13/14/7 14/13/7
f 16/15/8 14/13/7 13/14/7
f 13/14/7 15/16/8 16/15/8
f 18/17/9 16/15/8 15/16/8
f 15/16/8 17/18/9 18/17/9
f 20/19/10 18/17/9 17/18/9
f 17/18/9 19/20/10 20/19/10
f 22/21/11 20/19/10 19/20/10
f 19/20/10 21/22/11 22/21/11
f 24/23/12 22/21/11 21/22/11
f 21/22/11 23/24/12 24/23/12
f 26/25/13 24/23/12 23/24/12
f 23/24/12 25/26/13 26/25/13
f 28/27/14 26/25/13 25/26/13
f 25/26/13 27/28/14 28/27/14
f 30/29/15 28/27/14 27/28/14
f 27/28/14 29/30/15 30/29/15
f 32/31/16 30/29/15 29/30/15
f 29/30/15 31/32/16 32/31/16
f 34/33/17 32/31/16 31/32/16
f 31/32/16 33/34/17 34/33/17
f 36/35/18 34/33/17 33/34/17
f 33/34/17 35/36/18 36/35/18
f 38/37/19 36/35/18 35/36/18
f 35/36/18 37/38/19 38/37/19
f 40/39/20 38/37/19 37/38/19
f 37/38/19 39/40/20 40/39/20
f 42/41/21 40/39/20 39/40/20
f 39/40/20 41/42/21 42/41/21
f 46/43/22 43/44/21 44/45/21
f 44/45/21 45/46/22 46/43/22
f 48/47/23 46/43/22 45/46/22
f 45/46/22 47/48/23 48/47/23
f 50/49/24 48/47/23 47/48/23
f 47/48/23 49/50/24 50/49/24
f 52/51/25 50/49/24 49/50/24
f 49/50/24 51/52/25 52/51/25
f 54/53/26 52/51/25 51/52/25
f 51/52/25 53/54/26 54/53/26
f 56/55/27 54/53/26 53/54/26
f 53/54/26 55/56/27 56/55/27
f 58/57/28 56/55/27 55/56/27
f 55/56/27 57/58/28 58/57/28
f 60/59/29 58/57/28 57/58/28
f 57/58/28 59/60/29 60/59/29
f 62/61/30 60/59/29 59/60/29
f 59/60/29 61/62/30 62/61/30
f 64/63/31 62/61/30 61/62/30
f 61/62/30 63/64/31 64/63/31
f 66/65/32 64/63/31 63/64/31
f 63/64/31 65/66/32 66/65/32
f 1/2/2 66/65/32 65/66/32
f 65/66/32 2/3/2 1/2/2
f 70/67/33 67/47/33 68/49/34
f 68/49/34 69/68/34 70/67/33
f 74/69/35 71/30/35 72/28/36
f 72/28/36 73/70/37 74/69/35
f 78/71/38 75/65/38 76/2/39
f 76/2/39 77/72/39 78/71/38
f 82/73/40 79/50/40 80/48/41
f 80/48/41 81/74/41 82/73/40
f 86/75/42 83/11/42 84/13/43
f 84/13/43 85/76/43 86/75/42
f 90/77/44 87/3/44 88/66/45
f 88/66/45 89/78/45 90/77/44
f 94/79/46 91/29/46 92/31/47
f 92/31/47 93/80/47 94/79/46
f 98/81/48 95/14/48 96/12/49
f 96/12/49 97/82/50 98/81/48
f 69/68/34 68/49/34 99/51/51
f 99/51/51 100/83/51 69/68/34
f 102/84/52 101/32/52 71/30/35
f 71/30/35 74/69/35 102/84/52
f 104/85/53 103/52/54 79/50/40
f 79/50/40 82/73/40 104/85/53
f 85/76/43 84/13/43 105/15/55
f 105/15/55 106/86/55 85/76/43
f 93/80/47 92/31/47 107/33/56
f 107/33/56 108/87/56 93/80/47
f 110/88/57 109/16/58 95/14/48
f 95/14/48 98/81/48 110/88/57
f 100/83/51 99/51/51 111/53/59
f 111/53/59 112/89/59 100/83/51
f 114/90/60 113/34/60 101/32/52
f 101/32/52 102/84/52 114/90/60
f 116/91/61 115/54/61 103/52/54
f 103/52/54 104/85/53 116/91/61
f 106/86/55 105/15/55 117/17/62
f 117/17/62 118/92/62 106/86/55
f 108/87/56 107/33/56 119/35/63
f 119/35/63 120/93/63 108/87/56
f 122/94/64 121/18/65 109/16/58
f 109/16/58 110/88/57 122/94/64
f 112/89/59 111/53/59 123/55/66
f 123/55/66 124/95/66 112/89/59
f 126/96/67 125/36/67 113/34/60
f 113/34/60 114/90/60 126/96/67
f 128/97/68 127/56/68 115/54/61
f 115/54/61 116/91/61 128/97/68
f 118/92/62 117/17/62 129/19/69
f 129/19/69 130/98/69 118/92/62
f 120/93/63 119/35/63 131/37/70
f 131/37/70 132/99/70 120/93/63
f 134/100/71 133/20/71 121/18/65
f 121/18/65 122/94/64 134/100/71
f 77/72/39 76/2/39 135/1/72
f 135/1/72 136/101/72 77/72/39
f 124/95/66 123/55/66 137/57/73
f 137/57/73 138/102/73 124/95/66
f 140/103/74 139/38/74 125/36/67
f 125/36/67 126/96/67 140/103/74
f 142/104/75 141/4/75 87/3/44
f 87/3/44 90/77/44 142/104/75
f 144/105/76 143/58/77 127/56/68
f 127/56/68 128/97/68 144/105/76
f 130/98/69 129/19/69 145/21/78
f 145/21/78 146/106/78 130/98/69
f 132/99/70 131/37/70 147/39/79
f 147/39/79 148/107/79 132/99/70
f 150/108/80 149/22/80 133/20/71
f 133/20/71 134/100/71 150/108/80
f 138/102/73 137/57/73 151/59/81
f 151/59/81 152/109/81 138/102/73
f 154/110/82 153/40/83 139/38/74
f 139/38/74 140/103/74 154/110/82
f 136/101/72 135/1/72 155/5/84
f 155/5/84 156/111/84 136/101/72
f 158/112/85 157/60/86 143/58/77
f 143/58/77 144/105/76 158/112/85
f 146/106/78 145/21/78 159/23/87
f 159/23/87 160/113/87 146/106/78
f 162/114/88 161/6/88 141/4/75
f 141/4/75 142/104/75 162/114/88
f 148/107/79 147/39/79 163/41/89
f 163/41/89 164/115/89 148/107/79
f 166/116/90 165/24/91 149/22/80
f 149/22/80 150/108/80 166/116/90
f 152/109/81 151/59/81 167/61/92
f 167/61/92 168/117/92 152/109/81
f 170/118/93 169/42/93 153/40/83
f 153/40/83 154/110/82 170/118/93
f 156/111/84 155/5/84 171/7/94
f 171/7/94 172/119/94 156/111/84
f 174/120/95 173/62/96 157/60/86
f 157/60/86 158/112/85 174/120/95
f 160/113/87 159/23/87 175/25/97
f 175/25/97 176/121/97 160/113/87
f 178/122/98 177/8/99 161/6/88
f 161/6/88 162/114/88 178/122/98
f 182/123/100 179/44/101 180/43/102
f 180/43/102 181/124/102 182/123/100
f 184/125/103 183/26/103 165/24/91
f 165/24/91 166/116/90 184/125/103
f 168/117/92 167/61/92 185/63/104
f 185/63/104 186/126/104 168/117/92
f 190/127/105 187/46/105 188/45/93
f 188/45/93 189/128/93 190/127/105
f 172/119/94 171/7/94 191/9/106
f 191/9/106 192/129/106 172/119/94
f 194/130/107 193/64/107 173/62/96
f 173/62/96 174/120/95 194/130/107
f 176/121/97 175/25/97 195/27/108
f 195/27/108 196/131/108 176/121/97
f 198/132/109 197/10/109 177/8/99
f 177/8/99 178/122/98 198/132/109
f 181/124/102 180/43/102 67/47/33
f 67/47/33 70/67/33 181/124/102
f 73/70/37 72/28/36 183/26/103
f 183/26/103 184/125/103 73/70/37
f 186/126/104 185/63/104 75/65/38
f 75/65/38 78/71/38 186/126/104
f 81/74/41 80/48/41 187/46/105
f 187/46/105 190/127/105 81/74/41
f 192/129/106 191/9/106 83/11/42
f 83/11/42 86/75/42 192/129/106
f 89/78/45 88/66/45 193/64/107
f 193/64/107 194/130/107 89/78/45
f 196/131/108 195/27/108 91/29/46
f 91/29/46 94/79/46 196/131/108
f 97/82/50 96/12/49 197/10/109
f 197/10/109 198/132/109 97/82/50
f 202/133/1 199/134/2 200/135/2
f 200/135/2 201/136/1 202/133/1
f 204/137/3 202/133/1 201/136/1
f 201/136/1 203/138/3 204/137/3
f 206/139/4 204/137/3 203/138/3
f 203/138/3 205/140/4 206/139/4
f 208/141/5 206/139/4 205/140/4
f 205/140/4 207/142/5 208/141/5
f 212/143/6 209/144/5 210/145/5
f 210/145/5 211/146/6 212/143/6
f 214/147/7 212/143/6 211/146/6
f 211/146/6 213/148/7 214/147/7
f 216/149/8 214/147/7 213/148/7
f 213/148/7 215/150/8 216/149/8
f 218/151/9 216/149/8 215/150/8
f 215/150/8 217/152/9 218/151/9
f 220/153/10 218/151/9 217/152/9
f 217/152/9 219/154/10 220/153/10
f 222/155/11 220/153/10 219/154/10
f 219/154/10 221/156/11 222/155/11
f 224/157/12 222/155/11 221/156/11
f 221/156/11 223/158/12 224/157/12
f 226/159/13 224/157/12 223/158/12
f 223/158/12 225/160/13 226/159/13
f 228/161/14 226/159/13 225/160/13
f 225/160/13 227/162/14 228/161/14
f 230/163/15 228/161/14 227/162/14
f 227/162/14 229/164/15 230/163/15
f 232/165/16 230/163/15 229/164/15
f 229/164/15 231/166/16 232/165/16
f 234/167/17 232/165/16 231/166/16
f 231/166/16 233/168/17 234/167/17
f 236/169/18 234/167/17 233/168/17
f 233/168/17 235/170/18 236/169/18
f 238/171/19 236/169/18 235/170/18
f 235/170/18 237/172/19 238/171/19
f 240/173/20 238/171/19 237/172/19
f 237/172/19 239/174/20 240/173/20
f 242/175/21 240/173/20 239/174/20
f 239/174/20 241/176/21 242/175/21
f 246/177/22 243/178/21 244/179/21
f 244/179/21 245/180/22 246/177/22
f 248/181/23 246/177/22 245/180/22
f 245/180/22 247/182/23 248/181/23
f 250/183/24 248/181/23 247/182/23
f 247/182/23 249/184/24 250/183/24
f 252/185/25 250/183/24 249/184/24
f 249/184/24 251/186/25 252/185/25
f 254/187/26 252/185/25 251/186/25
f 251/186/25 253/188/26 254/187/26
f 256/189/27 254/187/26 253/188/26
f 253/188/26 255/190/27 256/189/27
f 258/191/28 256/189/27 255/190/27
f 255/190/27 257/192/28 258/191/28
f 260/193/29 258/191/28 257/192/28
f 257/192/28 259/194/29 260/193/29
f 262/195/30 260/193/29 259/194/29
f 259/194/29 261/196/30 262/195/30
f 264/197/31 262/195/30 261/196/30
f 261/196/30 263/198/31 264/197/31
f 266/199/32 264/197/31 263/198/31
f 263/198/31 265/200/32 266/199/32
f 199/134/2 266/199/32 265/200/32
f 265/200/32 200/135/2 199/134/2
f 270/201/33 267/202/33 268/203/34
f 268/203/34 269/204/34 270/201/33
f 274/205/110 271/206/110 272/207/111
f 272/207/111 273/208/111 274/205/110
f 278/209/38 275/210/38 276/211/39
f 276/211/39 277/212/39 278/209/38
f 282/213/112 279/214/112 280/215/113
f 280/215/113 281/216/113 282/213/112
f 286/217/42 283/218/42 284/219/43
f 284/219/43 285/220/43 286/217/42
f 290/221/114 287/222/114 288/223/115
f 288/223/115 289/224/115 290/221/114
f 294/225/46 291/226/46 292/227/47
f 292/227/47 293/228/47 294/225/46
f 298/229/116 295/230/116 296/231/117
f 296/231/117 297/232/117 298/229/116
f 269/204/34 268/203/34 299/233/51
f 299/233/51 300/234/51 269/204/34
f 302/235/118 301/236/118 271/206/110
f 271/206/110 274/205/110 302/235/118
f 304/237/119 303/238/119 279/214/112
f 279/214/112 282/213/112 304/237/119
f 285/220/43 284/219/43 305/239/55
f 305/239/55 306/240/55 285/220/43
f 293/228/47 292/227/47 307/241/56
f 307/241/56 308/242/56 293/228/47
f 310/243/120 309/244/120 295/230/116
f 295/230/116 298/229/116 310/243/120
f 300/234/51 299/233/51 311/245/59
f 311/245/59 312/246/59 300/234/51
f 314/247/121 313/248/121 301/236/118
f 301/236/118 302/235/118 314/247/121
f 316/249/122 315/250/122 303/238/119
f 303/238/119 304/237/119 316/249/122
f 306/240/55 305/239/55 317/251/62
f 317/251/62 318/252/62 306/240/55
f 308/242/56 307/241/56 319/253/63
f 319/253/63 320/254/63 308/242/56
f 322/255/123 321/256/123 309/244/120
f 309/244/120 310/243/120 322/255/123
f 312/246/59 311/245/59 323/257/66
f 323/257/66 324/258/66 312/246/59
f 326/259/124 325/260/124 313/248/121
f 313/248/121 314/247/121 326/259/124
f 328/261/125 327/262/125 315/250/122
f 315/250/122 316/249/122 328/261/125
f 318/252/62 317/251/62 329/263/69
f 329/263/69 330/264/69 318/252/62
f 320/254/63 319/253/63 331/265/70
f 331/265/70 332/266/70 320/254/63
f 334/267/126 333/268/126 321/256/123
f 321/256/123 322/255/123 334/267/126
f 277/212/39 276/211/39 335/269/72
f 335/269/72 336/270/72 277/212/39
f 324/258/66 323/257/66 337/271/73
f 337/271/73 338/272/73 324/258/66
f 340/273/127 339/274/127 325/260/124
f 325/260/124 326/259/124 340/273/127
f 342/275/128 341/276/128 287/222/114
f 287/222/114 290/221/114 342/275/128
f 344/277/129 343/278/129 327/262/125
f 327/262/125 328/261/125 344/277/129
f 330/264/69 329/263/69 345/279/78
f 345/279/78 346/280/78 330/264/69
f 332/266/70 331/265/70 347/281/79
f 347/281/79 348/282/79 332/266/70
f 350/283/130 349/284/130 333/268/126
f 333/268/126 334/267/126 350/283/130
f 338/272/73 337/271/73 351/285/131
f 351/285/131 352/286/132 338/272/73
f 354/287/133 353/288/133 339/274/127
f 339/274/127 340/273/127 354/287/133
f 336/270/72 335/269/72 355/289/84
f 355/289/84 356/290/84 336/270/72
f 358/291/134 357/292/135 343/278/129
f 343/278/129 344/277/129 358/291/134
f 346/280/78 345/279/78 359/293/87
f 359/293/87 360/294/87 346/280/78
f 362/295/136 361/296/136 341/276/128
f 341/276/128 342/275/128 362/295/136
f 348/282/79 347/281/79 363/297/89
f 363/297/89 364/298/89 348/282/79
f 366/299/137 365/300/137 349/284/130
f 349/284/130 350/283/130 366/299/137
f 352/286/132 351/285/131 367/301/92
f 367/301/92 368/302/92 352/286/132
f 370/303/138 369/304/139 353/288/133
f 353/288/133 354/287/133 370/303/138
f 356/290/84 355/289/84 371/305/94
f 371/305/94 372/306/94 356/290/84
f 374/307/140 373/308/140 357/292/135
f 357/292/135 358/291/134 374/307/140
f 360/294/87 359/293/87 375/309/141
f 375/309/141 376/310/142 360/294/87
f 378/311/143 377/312/143 361/296/136
f 361/296/136 362/295/136 378/311/143
f 382/313/100 379/314/100 380/315/102
f 380/315/102 381/316/102 382/313/100
f 384/317/144 383/318/145 365/300/137
f 365/300/137 366/299/137 384/317/144
f 368/302/92 367/301/92 385/319/104
f 385/319/104 386/320/104 368/302/92
f 388/321/146 387/322/146 369/304/139
f 369/304/139 370/303/138 388/321/146
f 372/306/94 371/305/94 389/323/147
f 389/323/147 390/324/147 372/306/94
f 392/325/148 391/326/148 373/308/140
f 373/308/140 374/307/140 392/325/148
f 376/310/142 375/309/141 393/327/108
f 393/327/108 394/328/108 376/310/142
f 396/329/149 395/330/150 377/312/143
f 377/312/143 378/311/143 396/329/149
f 381/316/102 380/315/102 267/202/33
f 267/202/33 270/201/33 381/316/102
f 273/208/111 272/207/111 383/318/145
f 383/318/145 384/317/144 273/208/111
f 386/320/104 385/319/104 275/210/38
f 275/210/38 278/209/38 386/320/104
f 281/216/113 280/215/113 387/322/146
f 387/322/146 388/321/146 281/216/113
f 398/331/151 397/332/151 283/218/42
f 283/218/42 286/217/42 398/331/151
f 289/224/115 288/223/115 391/326/148
f 391/326/148 392/325/148 289/224/115
f 394/328/108 393/327/108 291/226/46
f 291/226/46 294/225/46 394/328/108
f 297/232/117 296/231/117 395/330/150
f 395/330/150 396/329/149 297/232/117
s 0
f 402/333/152 399/334/152 400/335/152
f 400/335/152 401/336/152 402/333/152
f 406/337/152 403/338/152 404/339/152
f 404/339/152 405/340/152 406/337/152
f 410/341/152 407/342/152 408/343/152
f 408/343/152 409/344/152 410/341/152
f 414/345/152 411/346/152 412/347/152
f 412/347/152 413/348/152 414/345/152
f 418/349/152 415/350/152 416/351/152
f 416/351/152 417/352/152 418/349/152
f 420/353/152 419/354/152 399/334/152
f 399/334/152 402/333/152 420/353/152
f 422/355/152 421/356/152 403/338/152
f 403/338/152 406/337/152 422/355/152
f 424/357/152 423/358/152 407/342/152
f 407/342/152 410/341/152 424/357/152
f 426/359/152 425/360/152 411/346/152
f 411/346/152 414/345/152 426/359/152
f 428/361/152 427/362/152 415/350/152
f 415/350/152 418/349/152 428/361/152
f 430/363/152 429/364/152 419/354/152
f 419/354/152 420/353/152 430/363/152
f 432/365/152 431/366/152 421/356/152
f 421/356/152 422/355/152 432/365/152
f 434/367/152 433/368/152 423/358/152
f 423/358/152 424/357/152 434/367/152
f 436/369/152 435/370/152 425/360/152
f 425/360/152 426/359/152 436/369/152
f 438/371/152 437/372/152 427/362/152
f 427/362/152 428/361/152 438/371/152
f 440/373/152 439/374/152 429/364/152
f 429/364/152 430/363/152 440/373/152
f 442/375/152 441/376/152 431/366/152
f 431/366/152 432/365/152 442/375/152
f 444/377/152 443/378/152 433/368/152
f 433/368/152 434/367/152 444/377/152
f 446/379/152 445/380/152 437/372/152
f 437/372/152 438/371/152 446/379/152
f 448/381/152 447/382/152 439/374/152
f 439/374/152 440/373/152 448/381/152
f 450/383/152 449/384/152 441/376/152
f 441/376/152 442/375/152 450/383/152
f 452/385/152 451/386/152 443/378/152
f 443/378/152 444/377/152 452/385/152
f 454/387/152 453/388/152 445/380/152
f 445/380/152 446/379/152 454/387/152
f 456/389/152 455/390/152 447/382/152
f 447/382/152 448/381/152 456/389/152
f 458/391/152 457/392/152 435/370/152
f 435/370/152 436/369/152 458/391/152
f 460/393/152 459/394/152 449/384/152
f 449/384/152 450/383/152 460/393/152
f 462/395/152 461/396/152 451/386/152
f 451/386/152 452/385/152 462/395/152
f 401/336/152 400/335/152 453/388/152
f 453/388/152 454/387/152 401/336/152
f 405/340/152 404/339/152 455/390/152
f 455/390/152 456/389/152 405/340/152
f 409/344/152 408/343/152 457/392/152
f 457/392/152 458/391/152 409/344/152
f 413/348/152 412/347/152 459/394/152
f 459/394/152 460/393/152 413/348/152
f 417/352/152 416/351/152 461/396/152
f 461/396/152 462/395/152 417/352/152
f 464/397/152 428/361/152 418/349/152
f 418/349/152 463/398/152 464/397/152
f 466/399/152 432/365/152 422/355/152
f 422/355/152 465/400/152 466/399/152
f 467/401/152 438/371/152 428/361/152
f 428/361/152 464/397/152 467/401/152
f 468/402/152 442/375/152 432/365/152
f 432/365/152 466/399/152 468/402/152
f 469/403/152 446/379/152 438/371/152
f 438/371/152 467/401/152 469/403/152
f 470/404/152 450/383/152 442/375/152
f 442/375/152 468/402/152 470/404/152
f 471/405/152 454/387/152 446/379/152
f 446/379/152 469/403/152 471/405/152
f 473/406/152 458/391/152 436/369/152
f 436/369/152 472/407/152 473/406/152
f 474/408/152 460/393/152 450/383/152
f 450/383/152 470/404/152 474/408/152
f 475/409/152 401/336/152 454/387/152
f 454/387/152 471/405/152 475/409/152
f 476/410/152 409/344/152 458/391/152
f 458/391/152 473/406/152 476/410/152
f 477/411/152 413/348/152 460/393/152
f 460/393/152 474/408/152 477/411/152
f 478/412/152 402/333/152 401/336/152
f 401/336/152 475/409/152 478/412/152
f 479/413/152 410/341/152 409/344/152
f 409/344/152 476/410/152 479/413/152
f 480/414/152 414/345/152 413/348/152
f 413/348/152 477/411/152 480/414/152
f 481/415/152 420/353/152 402/333/152
f 402/333/152 478/412/152 481/415/152
f 482/416/152 424/357/152 410/341/152
f 410/341/152 479/413/152 482/416/152
f 483/417/152 426/359/152 414/345/152
f 414/345/152 480/414/152 483/417/152
f 484/418/152 430/363/152 420/353/152
f 420/353/152 481/415/152 484/418/152
f 485/419/152 434/367/152 424/357/152
f 424/357/152 482/416/152 485/419/152
f 472/407/152 436/369/152 426/359/152
f 426/359/152 483/417/152 472/407/152
f 486/420/152 440/373/152 430/363/152
f 430/363/152 484/418/152 486/420/152
f 487/421/152 444/377/152 434/367/152
f 434/367/152 485/419/152 487/421/152
f 488/422/152 448/381/152 440/373/152
f 440/373/152 486/420/152 488/422/152
f 489/423/152 452/385/152 444/377/152
f 444/377/152 487/421/152 489/423/152
f 490/424/152 456/389/152 448/381/152
f 448/381/152 488/422/152 490/424/152
f 491/425/152 462/395/152 452/385/152
f 452/385/152 489/423/152 491/425/152
f 492/426/152 405/340/152 456/389/152
f 456/389/152 490/424/152 492/426/152
f 493/427/152 417/352/152 462/395/152
f 462/395/152 491/425/152 493/427/152
f 494/428/152 406/337/152 405/340/152
f 405/340/152 492/426/152 494/428/152
f 463/398/152 418/349/152 417/352/152
f 417/352/152 493/427/152 463/398/152
f 465/400/152 422/355/152 406/337/152
f 406/337/152 494/428/152 465/400/152
f 496/429/152 471/405/152 469/403/152
f 469/403/152 495/430/152 496/429/152
f 498/431/152 473/406/152 472/407/152
f 472/407/152 497/432/152 498/431/152
f 500/433/152 474/408/152 470/404/152
f 470/404/152 499/434/152 500/433/152
f 501/435/152 475/409/152 471/405/152
f 471/405/152 496/429/152 501/435/152
f 502/436/152 476/410/152 473/406/152
f 473/406/152 498/431/152 502/436/152
f 503/437/152 477/411/152 474/408/152
f 474/408/152 500/433/152 503/437/152
f 504/438/152 478/412/152 475/409/152
f 475/409/152 501/435/152 504/438/152
f 505/439/152 479/413/152 476/410/152
f 476/410/152 502/436/152 505/439/152
f 506/440/152 480/414/152 477/411/152
f 477/411/152 503/437/152 506/440/152
f 507/441/152 481/415/152 478/412/152
f 478/412/152 504/438/152 507/441/152
f 508/442/152 482/416/152 479/413/152
f 479/413/152 505/439/152 508/442/152
f 509/443/152 483/417/152 480/414/152
f 480/414/152 506/440/152 509/443/152
f 510/444/152 484/418/152 481/415/152
f 481/415/152 507/441/152 510/444/152
f 511/445/152 485/419/152 482/416/152
f 482/416/152 508/442/152 511/445/152
f 497/432/152 472/407/152 483/417/152
f 483/417/152 509/443/152 497/432/152
f 512/446/152 486/420/152 484/418/152
f 484/418/152 510/444/152 512/446/152
f 513/447/152 487/421/152 485/419/152
f 485/419/152 511/445/152 513/447/152
f 514/448/152 488/422/152 486/420/152
f 486/420/152 512/446/152 514/448/152
f 515/449/152 489/423/152 487/421/152
f 487/421/152 513/447/152 515/449/152
f 516/450/152 490/424/152 488/422/152
f 488/422/152 514/448/152 516/450/152
f 517/451/152 491/425/152 489/423/152
f 489/423/152 515/449/152 517/451/152
f 518/452/152 492/426/152 490/424/152
f 490/424/152 516/450/152 518/452/152
f 519/453/152 493/427/152 491/425/152
f 491/425/152 517/451/152 519/453/152
f 520/454/152 494/428/152 492/426/152
f 492/426/152 518/452/152 520/454/152
f 521/455/152 463/398/152 493/427/152
f 493/427/152 519/453/152 521/455/152
f 522/456/152 465/400/152 494/428/152
f 494/428/152 520/454/152 522/456/152
f 523/457/152 464/397/152 463/398/152
f 463/398/152 521/455/152 523/457/152
f 524/458/152 466/399/152 465/400/152
f 465/400/152 522/456/152 524/458/152
f 525/459/152 467/401/152 464/397/152
f 464/397/152 523/457/152 525/459/152
f 526/460/152 468/402/152 466/399/152
f 466/399/152 524/458/152 526/460/152
f 495/430/152 469/403/152 467/401/152
f 467/401/152 525/459/152 495/430/152
f 499/434/152 470/404/152 468/402/152
f 468/402/152 526/460/152 499/434/152
f 528/461/152 507/441/152 504/438/152
f 504/438/152 527/462/152 528/461/152
f 530/463/152 508/442/152 505/439/152
f 505/439/152 529/464/152 530/463/152
f 532/465/152 509/443/152 506/440/152
f 506/440/152 531/466/152 532/465/152
f 533/467/152 510/444/152 507/441/152
f 507/441/152 528/461/152 533/467/152
f 534/468/152 511/445/152 508/442/152
f 508/442/152 530/463/152 534/468/152
f 535/469/152 497/432/152 509/443/152
f 509/443/152 532/465/152 535/469/152
f 536/470/152 512/446/152 510/444/152
f 510/444/152 533/467/152 536/470/152
f 537/471/152 513/447/152 511/445/152
f 511/445/152 534/468/152 537/471/152
f 538/472/152 514/448/152 512/446/152
f 512/446/152 536/470/152 538/472/152
f 539/473/152 515/449/152 513/447/152
f 513/447/152 537/471/152 539/473/152
f 540/474/152 516/450/152 514/448/152
f 514/448/152 538/472/152 540/474/152
f 541/475/152 517/451/152 515/449/152
f 515/449/152 539/473/152 541/475/152
f 542/476/152 518/452/152 516/450/152
f 516/450/152 540/474/152 542/476/152
f 543/477/152 519/453/152 517/451/152
f 517/451/152 541/475/152 543/477/152
f 544/478/152 520/454/152 518/452/152
f 518/452/152 542/476/152 544/478/152
f 545/479/152 521/455/152 519/453/152
f 519/453/152 543/477/152 545/479/152
f 546/480/152 522/456/152 520/454/152
f 520/454/152 544/478/152 546/480/152
f 547/481/152 523/457/152 521/455/152
f 521/455/152 545/479/152 547/481/152
f 548/482/152 524/458/152 522/456/152
f 522/456/152 546/480/152 548/482/152
f 549/483/152 525/459/152 523/457/152
f 523/457/152 547/481/152 549/483/152
f 550/484/152 526/460/152 524/458/152
f 524/458/152 548/482/152 550/484/152
f 551/485/152 495/430/152 525/459/152
f 525/459/152 549/483/152 551/485/152
f 552/486/152 499/434/152 526/460/152
f 526/460/152 550/484/152 552/486/152
f 553/487/152 496/429/152 495/430/152
f 495/430/152 551/485/152 553/487/152
f 554/488/152 498/431/152 497/432/152
f 497/432/152 535/469/152 554/488/152
f 555/489/152 500/433/152 499/434/152
f 499/434/152 552/486/152 555/489/152
f 556/490/152 501/435/152 496/429/152
f 496/429/152 553/487/152 556/490/152
f 557/491/152 502/436/152 498/431/152
f 498/431/152 554/488/152 557/491/152
f 558/492/152 503/437/152 500/433/152
f 500/433/152 555/489/152 558/492/152
f 527/462/152 504/438/152 501/435/152
f 501/435/152 556/490/152 527/462/152
f 529/464/152 505/439/152 502/436/152
f 502/436/152 557/491/152 529/464/152
f 531/466/152 506/440/152 503/437/152
f 503/437/152 558/492/152 531/466/152
f 538/472/152 536/470/152 559/493/152
f 539/473/152 537/471/152 559/493/152
f 540/474/152 538/472/152 559/493/152
f 541/475/152 539/473/152 559/493/152
f 542/476/152 540/474/152 559/493/152
f 543/477/152 541/475/152 559/493/152
f 544/478/152 542/476/152 559/493/152
f 545/479/152 543/477/152 559/493/152
f 546/480/152 544/478/152 559/493/152
f 547/481/152 545/479/152 559/493/152
f 548/482/152 546/480/152 559/493/152
f 549/483/152 547/481/152 559/493/152
f 550/484/152 548/482/152 559/493/152
f 551/485/152 549/483/152 559/493/152
f 552/486/152 550/484/152 559/493/152
f 553/487/152 551/485/152 559/493/152
f 554/488/152 535/469/152 559/493/152
f 555/489/152 552/486/152 559/493/152
f 556/490/152 553/487/152 559/493/152
f 557/491/152 554/488/152 559/493/152
f 558/492/152 555/489/152 559/493/152
f 527/462/152 556/490/152 559/493/152
f 529/464/152 557/491/152 559/493/152
f 531/466/152 558/492/152 559/493/152
f 528/461/152 527/462/152 559/493/152
f 530/463/152 529/464/152 559/493/152
f 532/465/152 531/466/152 559/493/152
f 533/467/152 528/461/152 559/493/152
f 534/468/152 530/463/152 559/493/152
f 535/469/152 532/465/152 559/493/152
f 536/470/152 533/467/152 559/493/152
f 537/471/152 534/468/152 559/493/152
s 1
f 563/494/2 560/495/32 561/496/32
f 561/496/32 562/497/2 563/494/2
f 560/495/32 564/498/31 565/499/31
f 565/499/31 561/496/32 560/495/32
f 564/498/31 566/500/30 567/501/30
f 567/501/30 565/499/31 564/498/31
f 566/500/30 568/502/29 569/503/29
f 569/503/29 567/501/30 566/500/30
f 568/502/29 570/504/28 571/505/28
f 571/505/28 569/503/29 568/502/29
f 570/504/28 572/506/27 573/507/27
f 573/507/27 571/505/28 570/504/28
f 572/506/27 574/508/26 575/509/26
f 575/509/26 573/507/27 572/506/27
f 574/508/26 576/510/25 577/511/25
f 577/511/25 575/509/26 574/508/26
f 576/510/25 578/512/24 579/513/24
f 579/513/24 577/511/25 576/510/25
f 578/512/24 580/514/23 581/515/23
f 581/515/23 579/513/24 578/512/24
f 580/514/23 582/516/22 583/517/22
f 583/517/22 581/515/23 580/514/23
f 582/516/22 584/518/21 585/519/21
f 585/519/21 583/517/22 582/516/22
f 589/520/21 586/521/20 587/522/20
f 587/522/20 588/523/21 589/520/21
f 586/521/20 590/524/19 591/525/19
f 591/525/19 587/522/20 586/521/20
f 590/524/19 592/526/18 593/527/18
f 593/527/18 591/525/19 590/524/19
f 592/526/18 594/528/17 595/529/17
f 595/529/17 593/527/18 592/526/18
f 594/528/17 596/530/16 597/531/16
f 597/531/16 595/529/17 594/528/17
f 596/530/16 598/532/15 599/533/15
f 599/533/15 597/531/16 596/530/16
f 598/532/15 600/534/14 601/535/14
f 601/535/14 599/533/15 598/532/15
f 600/534/14 602/536/13 603/537/13
f 603/537/13 601/535/14 600/534/14
f 602/536/13 604/538/12 605/539/12
f 605/539/12 603/537/13 602/536/13
f 604/538/12 606/540/11 607/541/11
f 607/541/11 605/539/12 604/538/12
f 606/540/11 608/542/10 609/543/10
f 609/543/10 607/541/11 606/540/11
f 608/542/10 610/544/9 611/545/9
f 611/545/9 609/543/10 608/542/10
f 610/544/9 612/546/8 613/547/8
f 613/547/8 611/545/9 610/544/9
f 612/546/8 614/548/7 615/549/7
f 615/549/7 613/547/8 612/546/8
f 614/548/7 616/550/6 617/551/6
f 617/551/6 615/549/7 614/548/7
f 616/550/6 618/552/5 619/553/5
f 619/553/5 617/551/6 616/550/6
f 623/554/5 620/555/4 621/556/4
f 621/556/4 622/557/5 623/554/5
f 620/555/4 624/558/3 625/559/3
f 625/559/3 621/556/4 620/555/4
f 624/558/3 626/560/1 627/561/1
f 627/561/1 625/559/3 624/558/3
f 626/560/1 563/494/2 562/497/2
f 562/497/2 627/561/1 626/560/1
f 562/497/2 561/496/32 266/199/32
f 266/199/32 199/134/2 562/497/2
f 561/496/32 565/499/31 264/197/31
f 264/197/31 266/199/32 561/496/32
f 565/499/31 567/501/30 262/195/30
f 262/195/30 264/197/31 565/499/31
f 567/501/30 569/503/29 260/193/29
f 260/193/29 262/195/30 567/501/30
f 569/503/29 571/505/28 258/191/28
f 258/191/28 260/193/29 569/503/29
f 571/505/28 573/507/27 256/189/27
f 256/189/27 258/191/28 571/505/28
f 573/507/27 575/509/26 254/187/26
f 254/187/26 256/189/27 573/507/27
f 575/509/26 577/511/25 252/185/25
f 252/185/25 254/187/26 575/509/26
f 577/511/25 579/513/24 250/183/24
f 250/183/24 252/185/25 577/511/25
f 579/513/24 581/515/23 248/181/23
f 248/181/23 250/183/24 579/513/24
f 581/515/23 583/517/22 246/177/22
f 246/177/22 248/181/23 581/515/23
f 583/517/22 585/519/21 243/178/21
f 243/178/21 246/177/22 583/517/22
f 588/523/21 587/522/20 240/173/20
f 240/173/20 242/175/21 588/523/21
f 587/522/20 591/525/19 238/171/19
f 238/171/19 240/173/20 587/522/20
f 591/525/19 593/527/18 236/169/18
f 236/169/18 238/171/19 591/525/19
f 593/527/18 595/529/17 234/167/17
f 234/167/17 236/169/18 593/527/18
f 595/529/17 597/531/16 232/165/16
f 232/165/16 234/167/17 595/529/17
f 597/531/16 599/533/15 230/163/15
f 230/163/15 232/165/16 597/531/16
f 599/533/15 601/535/14 228/161/14
f 228/161/14 230/163/15 599/533/15
f 601/535/14 603/537/13 226/159/13
f 226/159/13 228/161/14 601/535/14
f 603/537/13 605/539/12 224/157/12
f 224/157/12 226/159/13 603/537/13
f 605/539/12 607/541/11 222/155/11
f 222/155/11 224/157/12 605/539/12
f 607/541/11 609/543/10 220/153/10
f 220/153/10 222/155/11 607/541/11
f 609/543/10 611/545/9 218/151/9
f 218/151/9 220/153/10 609/543/10
f 611/545/9 613/547/8 216/149/8
f 216/149/8 218/151/9 611/545/9
f 613/547/8 615/549/7 214/147/7
f 214/147/7 216/149/8 613/547/8
f 615/549/7 617/551/6 212/143/6
f 212/143/6 214/147/7 615/549/7
f 617/551/6 619/553/5 209/144/5
f 209/144/5 212/143/6 617/551/6
f 622/557/5 621/556/4 206/139/4
f 206/139/4 208/141/5 622/557/5
f 621/556/4 625/559/3 204/137/3
f 204/137/3 206/139/4 621/556/4
f 625/559/3 627/561/1 202/133/1
f 202/133/1 204/137/3 625/559/3
f 627/561/1 562/497/2 199/134/2
f 199/134/2 202/133/1 627/561/1
f 629/562/1 628/563/2 563/494/2
f 563/494/2 626/560/1 629/562/1
f 630/564/3 629/562/1 626/560/1
f 626/560/1 624/558/3 630/564/3
f 631/565/4 630/564/3 624/558/3
f 624/558/3 620/555/4 631/565/4
f 632/566/5 631/565/4 620/555/4
f 620/555/4 623/554/5 632/566/5
f 634/567/6 633/568/5 618/552/5
f 618/552/5 616/550/6 634/567/6
f 635/569/7 634/567/6 616/550/6
f 616/550/6 614/548/7 635/569/7
f 636/570/8 635/569/7 614/548/7
f 614/548/7 612/546/8 636/570/8
f 637/571/9 636/570/8 612/546/8
f 612/546/8 610/544/9 637/571/9
f 638/572/10 637/571/9 610/544/9
f 610/544/9 608/542/10 638/572/10
f 639/573/11 638/572/10 608/542/10
f 608/542/10 606/540/11 639/573/11
f 640/574/12 639/573/11 606/540/11
f 606/540/11 604/538/12 640/574/12
f 641/575/13 640/574/12 604/538/12
f 604/538/12 602/536/13 641/575/13
f 642/576/14 641/575/13 602/536/13
f 602/536/13 600/534/14 642/576/14
f 643/577/15 642/576/14 600/534/14
f 600/534/14 598/532/15 643/577/15
f 644/578/16 643/577/15 598/532/15
f 598/532/15 596/530/16 644/578/16
f 645/579/17 644/578/16 596/530/16
f 596/530/16 594/528/17 645/579/17
f 646/580/18 645/579/17 594/528/17
f 594/528/17 592/526/18 646/580/18
f 647/581/19 646/580/18 592/526/18
f 592/526/18 590/524/19 647/581/19
f 648/582/20 647/581/19 590/524/19
f 590/524/19 586/521/20 648/582/20
f 649/583/21 648/582/20 586/521/20
f 586/521/20 589/520/21 649/583/21
f 651/584/22 650/585/21 584/518/21
f 584/518/21 582/516/22 651/584/22
f 652/586/23 651/584/22 582/516/22
f 582/516/22 580/514/23 652/586/23
f 653/587/24 652/586/23 580/514/23
f 580/514/23 578/512/24 653/587/24
f 654/588/25 653/587/24 578/512/24
f 578/512/24 576/510/25 654/588/25
f 655/589/26 654/588/25 576/510/25
f 576/510/25 574/508/26 655/589/26
f 656/590/27 655/589/26 574/508/26
f 574/508/26 572/506/27 656/590/27
f 657/591/28 656/590/27 572/506/27
f 572/506/27 570/504/28 657/591/28
f 658/592/29 657/591/28 570/504/28
f 570/504/28 568/502/29 658/592/29
f 659/593/30 658/592/29 568/502/29
f 568/502/29 566/500/30 659/593/30
f 660/594/31 659/593/30 566/500/30
f 566/500/30 564/498/31 660/594/31
f 661/595/32 660/594/31 564/498/31
f 564/498/31 560/495/32 661/595/32
f 628/563/2 661/595/32 560/495/32
f 560/495/32 563/494/2 628/563/2
f 663/596/2 662/597/32 661/595/32
f 661/595/32 628/563/2 663/596/2
f 662/597/32 664/598/31 660/594/31
f 660/594/31 661/595/32 662/597/32
f 664/598/31 665/599/30 659/593/30
f 659/593/30 660/594/31 664/598/31
f 665/599/30 666/600/29 658/592/29
f 658/592/29 659/593/30 665/599/30
f 666/600/29 667/601/28 657/591/28
f 657/591/28 658/592/29 666/600/29
f 667/601/28 668/602/27 656/590/27
f 656/590/27 657/591/28 667/601/28
f 668/602/27 669/603/26 655/589/26
f 655/589/26 656/590/27 668/602/27
f 669/603/26 670/604/25 654/588/25
f 654/588/25 655/589/26 669/603/26
f 670/604/25 671/605/24 653/587/24
f 653/587/24 654/588/25 670/604/25
f 671/605/24 672/606/23 652/586/23
f 652/586/23 653/587/24 671/605/24
f 672/606/23 673/607/22 651/584/22
f 651/584/22 652/586/23 672/606/23
f 673/607/22 674/608/21 650/585/21
f 650/585/21 651/584/22 673/607/22
f 676/609/21 675/610/20 648/582/20
f 648/582/20 649/583/21 676/609/21
f 675/610/20 677/611/19 647/581/19
f 647/581/19 648/582/20 675/610/20
f 677/611/19 678/612/18 646/580/18
f 646/580/18 647/581/19 677/611/19
f 678/612/18 679/613/17 645/579/17
f 645/579/17 646/580/18 678/612/18
f 679/613/17 680/614/16 644/578/16
f 644/578/16 645/579/17 679/613/17
f 680/614/16 681/615/15 643/577/15
f 643/577/15 644/578/16 680/614/16
f 681/615/15 682/616/14 642/576/14
f 642/576/14 643/577/15 681/615/15
f 682/616/14 683/617/13 641/575/13
f 641/575/13 642/576/14 682/616/14
f 683/617/13 684/618/12 640/574/12
f 640/574/12 641/575/13 683/617/13
f 684/618/12 685/619/11 639/573/11
f 639/573/11 640/574/12 684/618/12
f 685/619/11 686/620/10 638/572/10
f 638/572/10 639/573/11 685/619/11
f 686/620/10 687/621/9 637/571/9
f 637/571/9 638/572/10 686/620/10
f 687/621/9 688/622/8 636/570/8
f 636/570/8 637/571/9 687/621/9
f 688/622/8 689/623/7 635/569/7
f 635/569/7 636/570/8 688/622/8
f 689/623/7 690/624/6 634/567/6
f 634/567/6 635/569/7 689/623/7
f 690/624/6 691/625/5 633/568/5
f 633/568/5 634/567/6 690/624/6
f 693/626/5 692/627/4 631/565/4
f 631/565/4 632/566/5 693/626/5
f 692/627/4 694/628/3 630/564/3
f 630/564/3 631/565/4 692/627/4
f 694/628/3 695/629/1 629/562/1
f 629/562/1 630/564/3 694/628/3
f 695/629/1 663/596/2 628/563/2
f 628/563/2 629/562/1 695/629/1
